<svg xmlns="http://www.w3.org/2000/svg" height="1em" viewBox="0 0 24 24">
    <path d="M24.01 22.59 22.6 24l-7.24-7.24c-1.4-.55-2.35-1.98-2.35-3.76v-2c0-2.28 1.56-4 3.62-4h.29c1.4 0 2.69.96 3.28 2.45l-1.86.74C18.05 9.47 17.49 9 16.92 9h-.29c-.96 0-1.62.82-1.62 2v2c0 1.18.67 2 1.62 2h.29c.57 0 1.11-.44 1.41-1.16l1.85.77c-.42 1.02-1.15 1.77-2.01 2.13l2.25 2.25h1.59V6c0-.55-.45-1-1-1H6.41l2.05 2.05c1.18.21 2.22 1.11 2.73 2.4l-1.86.74C9.04 9.47 8.48 9 7.91 9h-.29C6.66 9 6 9.82 6 11v2c0 1.18.67 2 1.62 2h.29c.57 0 1.11-.44 1.41-1.16l1.85.77C10.56 16.08 9.31 17 7.91 17h-.29C5.55 17 4 15.28 4 13v-2c0-1.62.79-2.96 1.99-3.6L0 1.41 1.41 0l3.01 3.01H21c1.65 0 3 1.35 3 3v15h-1.59L24 22.6zM2 19V6.24L.36 4.6C.14 5.02 0 5.49 0 6v15h16.76l-2-2z"></path>
</svg>